<svg xmlns="http://www.w3.org/2000/svg" width="1200" height="630" viewBox="0 0 1200 630">
	<defs>
		<linearGradient id="bg" x1="0" y1="0" x2="1" y2="1">
			<stop offset="0" stop-color="#07090e"/>
			<stop offset="1" stop-color="#101722"/>
		</linearGradient>
		<radialGradient id="glow" cx="0.78" cy="0.25" r="0.65">
			<stop offset="0" stop-color="#5aef91" stop-opacity=".2"/>
			<stop offset="1" stop-color="#5aef91" stop-opacity="0"/>
		</radialGradient>
		<pattern id="grid" width="48" height="48" patternUnits="userSpaceOnUse">
			<path d="M48 0H0V48" fill="none" stroke="#fff" stroke-opacity=".045"/>
		</pattern>
	</defs>
	<rect width="1200" height="630" fill="url(#bg)"/>
	<rect width="1200" height="630" fill="url(#glow)"/>
	<rect width="1200" height="630" fill="url(#grid)"/>
	<rect x="72" y="66" width="62" height="62" rx="15" fill="#5aef91"/>
	<text x="103" y="106" fill="#07110b" font-family="monospace" font-size="20" font-weight="700" text-anchor="middle">&lt;/&gt;</text>
	<text x="154" y="105" fill="#f2f4f8" font-family="Arial, sans-serif" font-size="27" font-weight="700">Engenharia<tspan fill="#8f98a8">.software</tspan></text>
	<text x="72" y="242" fill="#5aef91" font-family="monospace" font-size="20" letter-spacing="2">COMUNIDADE BRASILEIRA NO WHATSAPP</text>
	<text x="72" y="322" fill="#f2f4f8" font-family="Arial, sans-serif" font-size="61" font-weight="700">Engenharia de Software</text>
	<text x="72" y="390" fill="#f2f4f8" font-family="Arial, sans-serif" font-size="61" font-weight="700">para quem <tspan fill="#5aef91">vive tecnologia.</tspan></text>
	<text x="72" y="463" fill="#a6aebd" font-family="Arial, sans-serif" font-size="24">Programação · Carreira tech · IA · DevOps · Arquitetura</text>
	<rect x="72" y="516" width="353" height="56" rx="10" fill="#5aef91"/>
	<text x="248" y="552" fill="#07110b" font-family="Arial, sans-serif" font-size="20" font-weight="700" text-anchor="middle">Entre para a comunidade →</text>
	<circle cx="1038" cy="162" r="7" fill="#5aef91"/>
	<circle cx="1100" cy="235" r="4" fill="#5aef91" opacity=".7"/>
	<circle cx="995" cy="287" r="5" fill="#5aef91" opacity=".8"/>
	<path d="M1038 162 1100 235 995 287 1038 162" fill="none" stroke="#5aef91" stroke-opacity=".3"/>
</svg>
